<svg width="53" height="53" viewBox="0 0 53 53" fill="none" xmlns="http://www.w3.org/2000/svg">
<g clip-path="url(#clip0_0_243)">
<path opacity="0.399" d="M45.0501 14.8621C45.4396 15.0334 45.7706 15.315 46.0021 15.672C46.2336 16.0291 46.3556 16.4461 46.353 16.8717V36.2167C46.3501 36.6102 46.2421 36.9958 46.0403 37.3336C45.8384 37.6714 45.5499 37.9491 45.2046 38.138L27.538 47.943C27.2039 48.117 26.8327 48.2079 26.4559 48.2079C26.0791 48.2079 25.7079 48.117 25.3738 47.943L7.70715 38.1159C7.36132 37.922 7.07293 37.6402 6.87125 37.2989C6.66957 36.9576 6.56178 36.569 6.55882 36.1725V16.8055C6.55543 16.3769 6.67681 15.9566 6.90817 15.5959C7.13952 15.2351 7.47084 14.9495 7.86173 14.7738L25.5284 6.91213C25.8084 6.78118 26.1137 6.71332 26.4228 6.71332C26.7319 6.71332 27.0372 6.78118 27.3171 6.91213L44.9838 14.7517L45.0501 14.8621Z" fill="#62E6BE"/>
<path d="M33.0363 9.31903L16.7609 18.3511V28.4653L21.1776 30.6736V20.9128L38.0713 11.5053L33.0363 9.31903Z" fill="#62E6BE"/>
</g>
<defs>
<clipPath id="clip0_0_243">
<rect width="53" height="53" fill="white"/>
</clipPath>
</defs>
</svg>
