<svg width="53" height="53" viewBox="0 0 53 53" fill="none" xmlns="http://www.w3.org/2000/svg">
<g clip-path="url(#clip0_0_248)">
<path d="M35.3334 34.5162V26.4779C35.3334 24.7208 34.6354 23.0357 33.393 21.7933C32.1506 20.5509 30.4655 19.8529 28.7084 19.8529H13.6034V12.1679C13.6018 11.4356 13.7445 10.7102 14.0233 10.033C14.3022 9.35588 14.7117 8.74031 15.2285 8.22148C15.7452 7.70264 16.3592 7.2907 17.0352 7.00919C17.7112 6.72768 18.4361 6.58211 19.1684 6.58081L45.1826 6.58081C46.6581 6.58227 48.0727 7.16905 49.116 8.21238C50.1593 9.2557 50.7461 10.6703 50.7476 12.1458V28.8629L50.7697 39.1979C50.7651 39.4893 50.6473 39.7675 50.4412 39.9736C50.2351 40.1797 49.9569 40.2975 49.6655 40.3021C49.3673 40.3003 49.0818 40.1813 48.8705 39.9708L43.3055 34.4058H35.223L35.3334 34.5162Z" fill="#62E6BE"/>
<path opacity="0.398" d="M4.70379 46.7504C4.50732 46.5407 4.39695 46.2648 4.39462 45.9775V40.4346C4.35034 40.1942 4.32817 39.9503 4.32837 39.7058L4.37254 39.75V28.7083C4.37049 28.1277 4.48334 27.5525 4.70458 27.0157C4.92581 26.4789 5.25106 25.9912 5.66159 25.5807C6.07213 25.1702 6.55983 24.8449 7.0966 24.6237C7.63338 24.4025 8.20863 24.2896 8.7892 24.2917H26.4559C27.6272 24.2917 28.7506 24.757 29.5789 25.5853C30.4072 26.4136 30.8725 27.5369 30.8725 28.7083V39.75C30.869 40.9203 30.4026 42.0417 29.5751 42.8692C28.7475 43.6967 27.6262 44.1632 26.4559 44.1667H9.03212L6.2717 46.7946C6.06636 46.9885 5.79449 47.0964 5.51204 47.096C5.36091 47.0963 5.21131 47.0658 5.07235 47.0064C4.93339 46.947 4.80799 46.8599 4.70379 46.7504Z" fill="#62E6BE"/>
</g>
<defs>
<clipPath id="clip0_0_248">
<rect width="53" height="53" fill="white"/>
</clipPath>
</defs>
</svg>
