<svg width="53" height="53" viewBox="0 0 53 53" fill="none" xmlns="http://www.w3.org/2000/svg">
<g clip-path="url(#clip0_0_225)">
<path opacity="0.397" d="M26.5147 0.0588379C20.6844 0.0586899 15.0169 1.98132 10.3913 5.52854C5.76569 9.07576 2.44046 14.0493 0.931352 19.6778C-0.57776 25.3064 -0.186423 31.2753 2.04467 36.6589C4.27576 42.0425 8.22192 46.5398 13.2711 49.4535C18.3203 52.3671 24.1903 53.5341 29.9708 52.7736C35.7513 52.0131 41.1191 49.3674 45.2419 45.2471C49.3646 41.1267 52.0117 35.7619 52.7727 29.9846C53.5338 24.2074 52.3661 18.3406 49.451 13.2941C47.1265 9.27019 43.7831 5.92867 39.757 3.60539C35.7308 1.28212 31.1637 0.0589559 26.5147 0.0588379Z" fill="#3FD6A8"/>
<path d="M0 26.5V25.7647C1.91283 25.9412 5.4442 26.353 5.59134 27.7044C5.79733 29.5882 5.59134 31.9397 7.18046 32.6471C7.95294 32.9897 8.46058 32.3235 8.93584 31.6574C9.43465 30.9544 9.89814 30.2515 10.5941 30.7353C11.9478 31.6765 15.6263 32.5588 15.6263 34.2353C15.6263 35.8824 14.92 38.4706 15.6263 38.9412C16.9637 40.18 18.1137 41.6067 19.04 43.1765C19.04 43.6471 19.9817 46.0294 19.7168 46.9427C19.091 48.4747 18.2049 49.8872 17.0977 51.1177C19.8087 52.1519 22.6728 52.7283 25.573 52.8235L25.7202 52.9706C18.831 52.7664 12.2923 49.8883 7.49074 44.9466C2.68917 40.005 0.00232754 33.3884 0 26.5ZM31.8118 35.1765C31.3293 35.0604 30.8275 35.0494 30.3404 35.1441C29.0617 35.2574 27.5565 35.3735 27.7566 33.7074C28.0509 31.2368 30.1403 31.0897 32.3753 30.0882C34.6119 29.0588 37.8504 25.7059 36.2613 25.2647C33.9978 24.561 31.9199 23.3615 30.1788 21.7537C28.4378 20.1459 27.0774 18.1702 26.1969 15.9706C25.726 15.8824 25.8438 10.853 23.9 10.7059C23.1971 10.6669 22.4921 10.7 21.7959 10.8044C20.5492 10.9927 19.279 10.9593 18.0438 10.7059C15.1908 10.1177 15.7779 8.23531 15.3365 4.2059C15.2225 3.53504 15.2111 2.85077 15.3026 2.17649L15.5366 2.38237C18.9613 0.808796 22.6866 -0.00399048 26.4559 1.47307e-05C31.3545 -0.00213205 36.1575 1.35507 40.3298 3.92042C44.5021 6.48576 47.8798 10.1585 50.0866 14.5294C50.1749 16.8235 50.1455 18.7647 50.6458 19.4706C53.2075 23.0588 44.3481 25.5588 45.7018 31C46.2904 33.3824 39.7868 32.6177 38.1977 34.8838C37.8807 35.29 37.4682 35.6117 36.997 35.8203C36.5257 36.0289 36.0102 36.1179 35.4962 36.0794C34.2199 36.0284 32.9669 35.7213 31.8118 35.1765Z" fill="#3FD6A8"/>
</g>
<defs>
<clipPath id="clip0_0_225">
<rect width="53" height="53" fill="white"/>
</clipPath>
</defs>
</svg>
