<svg width="80" height="80" viewBox="0 0 80 80" fill="none" xmlns="http://www.w3.org/2000/svg">
<path d="M77.7333 77.7466C77.1315 78.3362 76.3225 78.6664 75.48 78.6664C74.6375 78.6664 73.8285 78.3362 73.2267 77.7466L64.6133 69.1199L65.3333 65.3333L69.12 64.6133L77.7333 73.24C78.3277 73.8393 78.6612 74.6492 78.6612 75.4933C78.6612 76.3374 78.3277 77.1473 77.7333 77.7466Z" fill="#62E6BE"/>
<path d="M60.8265 65.3467L65.3331 60.8401L69.1062 64.6132L64.5996 69.1198L60.8265 65.3467Z" fill="#3EA686"/>
<path d="M10.6666 1.33325V49.3333H2.66665C2.31302 49.3333 1.97389 49.1928 1.72384 48.9427C1.47379 48.6927 1.33331 48.3535 1.33331 47.9999V5.33325C1.36127 4.28121 1.79168 3.27996 2.53585 2.53579C3.28002 1.79162 4.28127 1.36121 5.33331 1.33325H10.6666Z" fill="#3EA687"/>
<path d="M13.3333 59.9999C12.277 59.9854 11.2679 59.5594 10.5209 58.8123C9.77388 58.0653 9.3478 57.0563 9.33331 55.9999V5.33325C9.33331 4.27239 8.91189 3.25497 8.16174 2.50482C7.41159 1.75468 6.39418 1.33325 5.33331 1.33325H48C49.0609 1.33325 50.0783 1.75468 50.8284 2.50482C51.5786 3.25497 52 4.27239 52 5.33325V51.9999L16 59.9999H13.3333Z" fill="#62E6BE"/>
<path d="M52 52V60H13.3333C14.3942 60 15.4116 59.5786 16.1617 58.8284C16.9119 58.0783 17.3333 57.0609 17.3333 56V53.3333C17.3333 52.9797 17.4738 52.6406 17.7238 52.3905C17.9739 52.1405 18.313 52 18.6666 52H52Z" fill="#3EA687"/>
<path d="M36.8693 22.7999C38.0489 20.6795 38.6675 18.293 38.6666 15.8666V9.53322C38.6702 9.25742 38.5756 8.98933 38.3998 8.77683C38.2239 8.56433 37.9782 8.42128 37.7066 8.37322C35.4262 8.01085 33.1756 7.48052 30.9733 6.78656C30.7515 6.71991 30.5151 6.71991 30.2933 6.78656C28.0869 7.48199 25.8318 8.01234 23.5466 8.37322C23.2776 8.42433 23.0352 8.56865 22.862 8.78082C22.6889 8.99298 22.5961 9.2594 22.6 9.53322V15.8666C22.5996 18.0724 23.1552 20.2428 24.2156 22.1771C25.2759 24.1114 26.8068 25.7471 28.6666 26.9332L36.8693 22.7999Z" fill="#6D62E6"/>
<path d="M29.3333 21.3333C28.9797 21.3332 28.6407 21.1927 28.3907 20.9426L27.0573 19.6093C26.8144 19.3578 26.6801 19.021 26.6831 18.6714C26.6861 18.3218 26.8264 17.9874 27.0736 17.7402C27.3208 17.4929 27.6552 17.3527 28.0048 17.3497C28.3544 17.3466 28.6912 17.481 28.9427 17.7239L29.1893 17.9706L32.2667 13.8666C32.4788 13.5837 32.7947 13.3967 33.1448 13.3467C33.3181 13.3219 33.4946 13.3315 33.6642 13.375C33.8339 13.4184 33.9933 13.4949 34.1333 13.5999C34.2734 13.705 34.3914 13.8366 34.4806 13.9873C34.5698 14.1379 34.6285 14.3047 34.6533 14.478C34.678 14.6514 34.6684 14.8279 34.6249 14.9975C34.5815 15.1671 34.5051 15.3265 34.4 15.4666L30.4 20.7999C30.2857 20.9533 30.1398 21.0804 29.9721 21.1724C29.8043 21.2644 29.6188 21.3193 29.428 21.3333H29.3333Z" fill="white"/>
<path d="M22.6667 39.9999H16C15.6464 39.9999 15.3073 39.8594 15.0572 39.6094C14.8072 39.3593 14.6667 39.0202 14.6667 38.6666C14.6667 38.313 14.8072 37.9738 15.0572 37.7238C15.3073 37.4737 15.6464 37.3333 16 37.3333H22.6667C23.0203 37.3333 23.3594 37.4737 23.6095 37.7238C23.8595 37.9738 24 38.313 24 38.6666C24 39.0202 23.8595 39.3593 23.6095 39.6094C23.3594 39.8594 23.0203 39.9999 22.6667 39.9999Z" fill="white"/>
<path d="M24.8 34.6667H16C15.6464 34.6667 15.3073 34.5262 15.0572 34.2761C14.8072 34.0261 14.6667 33.687 14.6667 33.3333C14.6667 32.9797 14.8072 32.6406 15.0572 32.3905C15.3073 32.1405 15.6464 32 16 32H24.8C25.1536 32 25.4928 32.1405 25.7428 32.3905C25.9929 32.6406 26.1334 32.9797 26.1334 33.3333C26.1334 33.687 25.9929 34.0261 25.7428 34.2761C25.4928 34.5262 25.1536 34.6667 24.8 34.6667Z" fill="white"/>
<path d="M28.6667 28.2666C28.4156 28.2663 28.1697 28.1951 27.9573 28.0612C25.9099 26.7517 24.2243 24.9488 23.0553 22.818C21.8862 20.6873 21.2712 18.297 21.2667 15.8666V9.53324C21.2609 8.94391 21.4646 8.37168 21.8413 7.91849C22.2181 7.46529 22.7435 7.16056 23.324 7.05857C25.5404 6.71157 27.7274 6.19811 29.8667 5.52257C30.3473 5.36954 30.8628 5.36397 31.3467 5.50657C33.4994 6.18991 35.7002 6.71137 37.9307 7.06657C38.5123 7.16504 39.0399 7.4673 39.4191 7.91925C39.7982 8.37119 40.0042 8.94333 40 9.53324V15.8666C40.0038 18.5103 39.3324 21.1111 38.0493 23.4226C37.9711 23.5831 37.8614 23.7263 37.7268 23.8437C37.5922 23.961 37.4354 24.0502 37.2657 24.1057C37.0959 24.1613 36.9168 24.1823 36.7388 24.1673C36.5609 24.1523 36.3877 24.1017 36.2297 24.0186C36.0717 23.9354 35.9319 23.8213 35.8188 23.6831C35.7057 23.5449 35.6215 23.3854 35.5712 23.214C35.521 23.0426 35.5056 22.8629 35.5261 22.6855C35.5467 22.5081 35.6026 22.3366 35.6907 22.1812C36.7736 20.2532 37.3395 18.0779 37.3333 15.8666V9.66257C35.0647 9.29679 32.8256 8.76741 30.6333 8.07857C28.4414 8.76801 26.2022 9.29652 23.9333 9.65991V15.8666C23.9354 17.8472 24.435 19.7956 25.3862 21.5328C26.3374 23.2701 27.7098 24.7405 29.3773 25.8092C29.62 25.9641 29.8061 26.1933 29.9077 26.4627C30.0093 26.7321 30.021 27.0271 29.941 27.3037C29.861 27.5802 29.6936 27.8235 29.464 27.997C29.2343 28.1706 28.9546 28.2652 28.6667 28.2666Z" fill="white"/>
<path d="M45.3333 70.6667C59.3245 70.6667 70.6667 59.3245 70.6667 45.3333C70.6667 31.3421 59.3245 20 45.3333 20C31.3421 20 20 31.3421 20 45.3333C20 59.3245 31.3421 70.6667 45.3333 70.6667Z" fill="#E1EFFF"/>
<path d="M45.3333 65.3333C56.379 65.3333 65.3333 56.3789 65.3333 45.3333C65.3333 34.2876 56.379 25.3333 45.3333 25.3333C34.2876 25.3333 25.3333 34.2876 25.3333 45.3333C25.3333 56.3789 34.2876 65.3333 45.3333 65.3333Z" fill="#6D62E6"/>
<path d="M45.3333 66.6667C39.6754 66.6667 34.2492 64.4191 30.2484 60.4183C26.2476 56.4175 24 50.9913 24 45.3333C24 39.6754 26.2476 34.2492 30.2484 30.2484C34.2492 26.2476 39.6754 24 45.3333 24C45.687 24 46.0261 24.1405 46.2761 24.3905C46.5262 24.6406 46.6667 24.9797 46.6667 25.3333C46.6667 25.687 46.5262 26.0261 46.2761 26.2761C46.0261 26.5262 45.687 26.6667 45.3333 26.6667C40.6065 26.6762 36.0598 28.4807 32.6129 31.7152C29.1661 34.9497 27.0765 39.3727 26.7668 44.0894C26.4572 48.806 27.9507 53.4642 30.9451 57.1216C33.9395 60.7789 38.2114 63.1624 42.8964 63.7897C47.5814 64.417 52.3298 63.2414 56.1809 60.5008C60.0321 57.7601 62.6985 53.6589 63.6407 49.0269C64.5829 44.395 63.7305 39.578 61.2561 35.5506C58.7816 31.5233 54.8698 28.5861 50.312 27.3333C49.9711 27.2393 49.6816 27.0136 49.507 26.7061C49.3325 26.3985 49.2873 26.0342 49.3813 25.6933C49.4754 25.3524 49.701 25.0629 50.0086 24.8883C50.3161 24.7138 50.6804 24.6686 51.0213 24.7627C56.0035 26.1318 60.3195 29.2627 63.1677 33.5737C66.0159 37.8847 67.2027 43.0829 66.5077 48.2028C65.8127 53.3228 63.2832 58.0165 59.3889 61.4123C55.4946 64.8081 50.5002 66.6751 45.3333 66.6667Z" fill="#6D62E6"/>
<path d="M34.6667 37.3332C34.403 37.3332 34.1453 37.2549 33.9261 37.1084C33.7068 36.9619 33.536 36.7537 33.4351 36.5101C33.3342 36.2665 33.3078 35.9985 33.3592 35.7399C33.4106 35.4812 33.5376 35.2437 33.724 35.0572L35.0573 33.7239C35.3088 33.481 35.6456 33.3466 35.9952 33.3497C36.3448 33.3527 36.6792 33.4929 36.9264 33.7401C37.1736 33.9873 37.3139 34.3218 37.3169 34.6714C37.3199 35.021 37.1855 35.3578 36.9427 35.6092L35.6093 36.9426C35.3593 37.1926 35.0203 37.3332 34.6667 37.3332Z" fill="#6D62E6"/>
<path d="M33.3334 45.3333C33.0697 45.3333 32.812 45.255 32.5927 45.1085C32.3735 44.962 32.2027 44.7538 32.1018 44.5102C32.0009 44.2666 31.9745 43.9985 32.0259 43.7399C32.0773 43.4813 32.2043 43.2438 32.3907 43.0573L43.0574 32.3906C43.3088 32.1478 43.6456 32.0134 43.9952 32.0164C44.3448 32.0194 44.6792 32.1597 44.9264 32.4069C45.1737 32.6541 45.3139 32.9885 45.3169 33.3381C45.32 33.6877 45.1856 34.0245 44.9427 34.276L34.276 44.9426C34.026 45.1927 33.6869 45.3332 33.3334 45.3333Z" fill="#6D62E6"/>
<path d="M37.3334 58.6666C37.0697 58.6666 36.812 58.5884 36.5927 58.4418C36.3735 58.2953 36.2027 58.0871 36.1018 57.8435C36.0009 57.5999 35.9745 57.3319 36.0259 57.0733C36.0773 56.8147 36.2043 56.5771 36.3907 56.3906L56.3907 36.3906C56.6422 36.1478 56.979 36.0134 57.3286 36.0164C57.6782 36.0194 58.0126 36.1597 58.2598 36.4069C58.507 36.6541 58.6472 36.9885 58.6503 37.3381C58.6533 37.6877 58.5189 38.0245 58.276 38.276L38.276 58.276C38.026 58.526 37.6869 58.6666 37.3334 58.6666Z" fill="#6D62E6"/>
<path d="M34.6667 51.9999C34.403 51.9998 34.1453 51.9216 33.9261 51.7751C33.7068 51.6286 33.536 51.4204 33.4351 51.1768C33.3342 50.9332 33.3078 50.6651 33.3592 50.4065C33.4106 50.1479 33.5376 49.9104 33.724 49.7239L41.724 41.7239C41.9755 41.481 42.3123 41.3466 42.6619 41.3497C43.0115 41.3527 43.3459 41.4929 43.5931 41.7401C43.8403 41.9873 43.9805 42.3218 43.9836 42.6714C43.9866 43.021 43.8522 43.3578 43.6093 43.6092L35.6093 51.6092C35.3593 51.8593 35.0203 51.9998 34.6667 51.9999Z" fill="#6D62E6"/>
<path d="M46.6667 39.9999C46.403 39.9998 46.1453 39.9216 45.9261 39.7751C45.7068 39.6286 45.536 39.4204 45.4351 39.1768C45.3342 38.9332 45.3078 38.6651 45.3592 38.4065C45.4106 38.1479 45.5376 37.9104 45.724 37.7239L49.724 33.7239C49.9755 33.481 50.3123 33.3466 50.6619 33.3497C51.0115 33.3527 51.3459 33.4929 51.5931 33.7401C51.8403 33.9873 51.9805 34.3218 51.9836 34.6714C51.9866 35.021 51.8522 35.3578 51.6093 35.6092L47.6093 39.6092C47.3593 39.8593 47.0203 39.9998 46.6667 39.9999Z" fill="#6D62E6"/>
</svg>
