<svg width="80" height="80" viewBox="0 0 80 80" fill="none" xmlns="http://www.w3.org/2000/svg">
<g clip-path="url(#clip0_0_348)">
<path d="M78.8281 37.9375L66.1562 30.9062C65.4061 30.5312 64.5623 30.5312 63.8125 30.9062L58.75 33.7664V14.2188H21.25V33.7664L16.1873 30.9062C15.4375 30.5312 14.5938 30.5312 13.8436 30.9062L1.17188 37.9375C0.468594 38.3592 0 39.1562 0 40C0 40.8438 0.468594 41.6405 1.17188 42.0625L10.1875 47.0312L34.1406 67.8438H45.8594L69.8125 47.0312L78.8281 42.0625C79.5314 41.6405 80 40.8438 80 40C80 39.1562 79.5314 38.3592 78.8281 37.9375ZM40 44.3594L28.1352 37.6562H51.8647L40 44.3594Z" fill="url(#paint0_linear_0_348)"/>
<path d="M78.8281 52L69.8125 47.0312L41.1719 63.1562C40.7969 63.3436 40.375 63.4375 40 63.4375C39.625 63.4375 39.2031 63.3436 38.8281 63.1562L10.1875 47.0312L1.17188 52C0.468594 52.4217 0 53.2188 0 54.0625C0 54.9062 0.468594 55.703 1.17188 56.125L38.8281 77.2188C39.2031 77.4061 39.625 77.5 40 77.5C40.375 77.5 40.7969 77.4061 41.1719 77.2188L78.8281 56.125C79.5314 55.703 80 54.9062 80 54.0625C80 53.2188 79.5314 52.4217 78.8281 52ZM1.17188 28L38.8281 49.0938C39.2031 49.2811 39.625 49.375 40 49.375C40.375 49.375 40.7969 49.2811 41.1719 49.0938L78.8281 28C79.5314 27.578 80 26.7812 80 25.9375C80 25.0938 79.5314 24.2967 78.8281 23.875L41.1719 2.78125C40.422 2.40625 39.578 2.40625 38.8281 2.78125L1.17188 23.875C0.468594 24.2967 0 25.0938 0 25.9375C0 26.7812 0.468594 27.578 1.17188 28ZM47.7345 22.8905C46.797 21.9998 46.797 20.4998 47.7345 19.6092C48.6252 18.6719 50.125 18.6719 51.0156 19.6092L55.7031 24.2967C56.6406 25.1873 56.6406 26.6873 55.7031 27.578L51.0156 32.2655C50.1725 33.203 48.5781 33.2033 47.7345 32.2655C46.797 31.3748 46.797 29.8748 47.7345 28.9842L50.7342 25.9375L47.7345 22.8905ZM36.5312 30.0625L38.875 20.6875C39.2031 19.4217 40.4686 18.6719 41.7344 18.9997C43.0002 19.2809 43.75 20.5467 43.4688 21.8123L41.125 31.1873C40.7256 32.7184 38.9959 33.2405 38.2656 32.8748C37 32.5938 36.25 31.328 36.5312 30.0625ZM24.297 24.2967L28.9845 19.6092C29.8752 18.6719 31.375 18.6719 32.2656 19.6092C33.2031 20.4998 33.2031 21.9998 32.2656 22.8905L29.2658 25.9375L32.2655 28.9842C33.203 29.8748 33.203 31.3748 32.2655 32.2655C31.4223 33.203 29.828 33.2033 28.9844 32.2655L24.2969 27.578C23.3594 26.6873 23.3594 25.1873 24.297 24.2967Z" fill="#6D62E6"/>
</g>
<defs>
<linearGradient id="paint0_linear_0_348" x1="40" y1="67.8438" x2="40" y2="14.2188" gradientUnits="userSpaceOnUse">
<stop stop-color="#ADDCFF"/>
<stop offset="0.5028" stop-color="#EAF6FF"/>
<stop offset="1" stop-color="#EAF6FF"/>
</linearGradient>
<clipPath id="clip0_0_348">
<rect width="80" height="80" fill="white"/>
</clipPath>
</defs>
</svg>
