<svg width="24" height="24" viewBox="0 0 24 24" fill="none" xmlns="http://www.w3.org/2000/svg">
<g id="Objects" clip-path="url(#clip0_0_825)">
<path id="Vector" d="M10.7898 20.9522V21.5H10.7633V21.5213H2.53176L2.66431 20.8644C2.68817 20.7474 2.71468 20.633 2.73854 20.524C2.7624 20.4202 2.79156 20.3139 2.82072 20.2075L2.83663 20.149L2.85254 20.0931C2.87639 20.0107 2.90025 19.9335 2.92411 19.8538V19.8431C2.94532 19.7793 2.96653 19.7155 2.99039 19.649C3.01425 19.5772 3.04076 19.5054 3.06727 19.4335C3.09908 19.3431 3.1362 19.25 3.17331 19.1596C3.20513 19.0798 3.23694 19.0054 3.27405 18.9229C3.28731 18.891 3.30056 18.8564 3.31912 18.8245C3.35358 18.7474 3.3854 18.6782 3.41721 18.6117C3.43046 18.5825 3.44372 18.5532 3.45963 18.5266C3.49409 18.4575 3.53121 18.3857 3.56832 18.3165C3.58158 18.2899 3.59748 18.258 3.61869 18.2234C3.61869 18.2234 3.61869 18.2208 3.61869 18.2181V18.2101L3.62664 18.1995C3.67436 18.1091 3.71943 18.0293 3.7645 17.9548C3.80691 17.883 3.85198 17.8059 3.90235 17.7288L3.92091 17.7022C3.93417 17.6809 3.95007 17.6569 3.96333 17.6357L3.98188 17.6064C4.0296 17.5293 4.08528 17.4468 4.1383 17.3697C4.19927 17.2819 4.2629 17.1915 4.33447 17.0958C4.38219 17.0293 4.43256 16.9628 4.49884 16.8777L4.50414 16.8724L4.50944 16.8671L4.5227 16.8511C4.54126 16.8245 4.56512 16.7979 4.58367 16.774C4.6367 16.7075 4.69237 16.6383 4.75334 16.5692C4.7666 16.5506 4.77985 16.5399 4.78781 16.5293C4.84878 16.4575 4.9071 16.391 4.97338 16.3218C4.99194 16.3006 5.01049 16.2793 5.0317 16.2607C5.09533 16.1915 5.16425 16.1197 5.25439 16.0293C5.93571 15.3458 6.70187 14.7766 7.5396 14.3351H3.44637C2.37535 15.4229 1.53231 16.6835 0.938473 18.0878C0.323429 19.5639 0.00530211 21.1357 0 22.758V23.8165V23.9974H13.2049V13.2367V11.266V3.20748V2.65961H13.2367L13.7828 2.65429H21.4682L21.3357 3.3112C20.9645 5.14365 20.0658 6.81652 18.7377 8.14631C18.4566 8.42822 18.1624 8.68886 17.8522 8.93088H21.3516C22.0488 8.06652 22.6188 7.11173 23.0509 6.0878C23.6739 4.60907 23.992 3.03727 23.9973 1.41758V0.178223H10.7898V20.9548V20.9522Z" fill="#6D62E6"/>
<path id="Vector_2" d="M2.47609 10.758V2.53191L3.12825 2.66223C4.96543 3.02926 6.64354 3.93085 7.97437 5.26862C8.06451 5.35904 8.15465 5.45479 8.24213 5.55053V2.25532C7.51839 1.73138 6.73633 1.29255 5.9145 0.944149C4.44317 0.316489 2.87374 0 1.2566 0H0V12.5106H8.24213V10.758H2.47609Z" fill="#6D62E6" fill-opacity="0.4"/>
<path id="Vector_3" d="M21.3463 12.5107V21.4655L20.6941 21.3352C18.8596 20.9708 17.1841 20.0719 15.8453 18.7315C15.8162 18.7022 15.7897 18.6756 15.7605 18.6464V21.8777C16.4286 22.3405 17.147 22.7368 17.9025 23.0559C19.3792 23.6836 20.946 24.0001 22.5631 24.0001H23.8171V10.7581H15.7631V12.5107H21.3463Z" fill="#6D62E6" fill-opacity="0.4"/>
</g>
<defs>
<clipPath id="clip0_0_825">
<rect width="24" height="24" fill="white"/>
</clipPath>
</defs>
</svg>
