<svg width="80" height="80" viewBox="0 0 80 80" fill="none" xmlns="http://www.w3.org/2000/svg">
<g clip-path="url(#clip0_0_483)">
<path d="M77.0203 31.1682L69.3372 30.2405C69.1223 30.2148 68.9429 30.0665 68.8678 29.8535C68.4985 28.8031 68.0646 27.7594 67.5787 26.7505C67.4854 26.5558 67.5061 26.3342 67.6337 26.1719L72.4225 20.0677C73.4784 18.7213 73.3624 16.7938 72.1527 15.5841L64.4165 7.8479C63.2062 6.63757 61.2787 6.52161 59.9323 7.57812L53.8287 12.3669C53.6658 12.4945 53.4442 12.5153 53.2501 12.4213C52.2412 11.9354 51.1969 11.5015 50.1471 11.1322C49.9335 11.0577 49.7852 10.8777 49.7595 10.6635L48.8318 2.97974C48.6267 1.28113 47.1814 0 45.4706 0H34.5294C32.8186 0 31.3733 1.28113 31.1682 2.97974L30.2405 10.6628C30.2148 10.8777 30.0665 11.0571 29.8535 11.1322C28.8031 11.5015 27.7594 11.9354 26.7505 12.4213C26.5558 12.5146 26.3342 12.4939 26.1719 12.3663L20.0677 7.57751C18.7213 6.521 16.7938 6.63757 15.5841 7.84729L7.8479 15.5841C6.63757 16.7938 6.52161 18.7213 7.57812 20.0677L12.3669 26.1713C12.4945 26.3342 12.5153 26.5558 12.4213 26.7505C11.9354 27.7594 11.5015 28.8031 11.1322 29.8529C11.0571 30.0665 10.8777 30.2148 10.6635 30.2405L2.97974 31.1682C1.28113 31.3733 0 32.8186 0 34.5294V45.4706C0 47.182 1.28113 48.6267 2.97974 48.8318L10.6628 49.7595C10.8777 49.7852 11.0571 49.9335 11.1322 50.1465C11.5015 51.1969 11.9354 52.2406 12.4213 53.2501C12.5146 53.4442 12.4939 53.6664 12.3663 53.8287L7.57751 59.9323C6.52161 61.2787 6.63757 63.2062 7.84729 64.4165L15.5835 72.1527C16.7938 73.3624 18.7213 73.4784 20.0677 72.4225L26.1713 67.6331C26.3336 67.5055 26.5558 67.4847 26.7499 67.5787C27.7588 68.0646 28.8031 68.4985 29.8529 68.8678C30.0665 68.9429 30.2148 69.1223 30.2405 69.3365L31.1682 77.0203C31.3733 78.7189 32.8186 80 34.5294 80H45.4706C47.1814 80 48.6267 78.7189 48.8318 77.0203L49.7595 69.3372C49.7852 69.1223 49.9335 68.9429 50.1465 68.8678C51.1969 68.4985 52.2406 68.0646 53.2495 67.5787C53.4442 67.4847 53.6658 67.5061 53.8281 67.6337L59.9323 72.4225C61.2787 73.4784 63.2062 73.3624 64.4159 72.1527L72.1521 64.4165C73.3624 63.2062 73.4784 61.2787 72.4219 59.9323L67.6331 53.8287C67.5055 53.6664 67.4847 53.4448 67.5787 53.2501C68.0646 52.2412 68.4985 51.1969 68.8678 50.1471C68.9429 49.9341 69.1223 49.7858 69.3365 49.7595L77.0203 48.8318C78.7189 48.6267 80 47.1814 80 45.4706V34.5294C80 32.8186 78.7189 31.3733 77.0203 31.1682Z" fill="#6D62E6"/>
<path d="M59.7101 40.0001C59.7101 50.8857 50.8856 59.7102 40 59.7102C29.1144 59.7102 20.2899 50.8857 20.2899 40.0001C20.2899 29.1145 29.1144 20.29 40 20.29C50.8856 20.29 59.7101 29.1145 59.7101 40.0001Z" fill="#62E6BE"/>
<path d="M45.5444 21.082C50.3497 24.6764 53.4601 30.4125 53.4601 36.8749C53.4601 47.7605 44.6356 56.585 33.75 56.585C31.825 56.585 29.9646 56.3073 28.2056 55.7927C31.4941 58.2531 35.5768 59.71 40 59.71C50.8856 59.71 59.7101 50.8855 59.7101 39.9999C59.7101 31.0399 53.7305 23.4771 45.5444 21.082Z" fill="#41B390"/>
<path d="M77.0203 31.1683L73.689 30.7661C73.7286 30.9736 73.75 31.1873 73.75 31.4045V42.3457C73.75 44.0571 72.4689 45.5018 70.7703 45.7069L63.0865 46.6346C62.8723 46.6603 62.6929 46.8086 62.6178 47.0222C62.2485 48.072 61.8146 49.1157 61.3287 50.1246C61.2347 50.3193 61.2561 50.5409 61.3831 50.7032L66.1725 56.8074C67.2284 58.1538 67.1124 60.0813 65.9027 61.291L58.1665 69.0272C57.746 69.4478 57.2382 69.7328 56.6998 69.886L59.9323 72.422C61.2787 73.4785 63.2062 73.3625 64.4165 72.1522L72.1527 64.416C73.3624 63.2063 73.4784 61.2788 72.4225 59.9324L67.6331 53.8282C67.5061 53.6659 67.4847 53.4443 67.5787 53.2496C68.0646 52.2407 68.4985 51.197 68.8678 50.1472C68.9429 49.9336 69.1223 49.7853 69.3365 49.7596L77.0203 48.8319C78.7189 48.6268 80 47.1815 80 45.4707V34.5295C80 32.8187 78.7189 31.3734 77.0203 31.1683Z" fill="#4B41B4"/>
<path d="M47.5781 64.5081C47.4158 64.3806 47.1942 64.3598 46.9995 64.4538C45.9906 64.9397 44.9469 65.3736 43.8965 65.7429C43.6835 65.8179 43.5352 65.9974 43.5095 66.2116L42.5818 73.8953C42.3767 75.5939 40.9314 76.8751 39.2206 76.8751H31.1511L31.1682 77.0203C31.3733 78.7189 32.8186 80.0001 34.5294 80.0001H45.4706C47.1814 80.0001 48.6267 78.7189 48.8318 77.0203L49.7595 69.3372C49.7852 69.1224 49.9335 68.9429 50.1465 68.8679C50.8154 68.6329 51.4801 68.3686 52.1362 68.0848L47.5781 64.5081Z" fill="#4B41B4"/>
<path d="M35.9692 45.6636V59.297C37.2705 59.5674 38.6182 59.7102 39.9994 59.7102H40.0006C41.3818 59.7102 42.7295 59.5674 44.0308 59.297V45.674L35.9692 45.6636Z" fill="#D6E6EE"/>
<path d="M44.1376 27.6055V34.5122C44.1376 34.7387 44.0448 34.956 43.8806 35.1122L40.4938 38.3495C40.1672 38.662 39.6515 38.6559 39.3323 38.3367L36.106 35.1104C35.9497 34.9547 35.8624 34.7429 35.8624 34.5226V27.6049C35.8624 26.9195 35.1123 26.5001 34.5264 26.8554C31.3495 28.7823 29.2688 32.3351 29.4391 36.3598C29.6753 41.9207 34.2835 46.3915 39.8492 46.469C45.7562 46.5514 50.5707 41.7876 50.5707 35.8996C50.5707 32.0647 48.5284 28.7078 45.473 26.8548C44.8871 26.5001 44.1376 26.9201 44.1376 27.6055Z" fill="#D6E6EE"/>
<path d="M40.9058 45.6738V53.1158C40.9058 54.9792 39.4293 56.5082 37.5671 56.5729C37.3376 56.5808 37.1069 56.5851 36.8756 56.5851H36.8738C36.5704 56.5851 36.2689 56.5771 35.9692 56.5631V59.2969C37.2699 59.5673 38.6182 59.7101 39.9988 59.7101H40.0006C41.3818 59.7101 42.7295 59.5673 44.0308 59.2969V45.6744H40.9058V45.6738Z" fill="#ACC6D3"/>
<path d="M40 50.7336C39.353 50.7336 38.8281 51.2579 38.8281 51.9055V59.6741C39.2157 59.6967 39.6057 59.7101 39.9994 59.7101H40.0006C40.3943 59.7101 40.7843 59.6967 41.1719 59.6741V51.9055C41.1719 51.2579 40.647 50.7336 40 50.7336Z" fill="#78909C"/>
<path d="M40.5823 59.701C40.3894 59.7065 40.1953 59.7102 40.0006 59.7102H39.9994C39.8047 59.7102 39.6106 59.7065 39.4177 59.701C39.4086 59.7004 39.3988 59.6998 39.3896 59.6998C39.2017 59.6937 39.0143 59.6852 38.8281 59.6742V56.2861C40.0531 55.7515 40.9058 54.5308 40.9058 53.116V51.1616C41.0718 51.3643 41.1719 51.623 41.1719 51.9056V59.6742C40.9851 59.6852 40.7977 59.6937 40.6097 59.6998C40.6012 59.6998 40.5914 59.7004 40.5823 59.701Z" fill="#455A64"/>
<path d="M45.473 26.855C45.033 26.5882 44.5007 26.7591 44.2627 27.151C45.2887 28.78 45.8832 30.7075 45.8832 32.7748C45.8832 38.6628 41.0687 43.4266 35.1617 43.3442C34.071 43.3289 33.0182 43.1428 32.027 42.815C33.9429 45.0166 36.7468 46.4259 39.8492 46.4692C45.7562 46.5516 50.5707 41.7878 50.5707 35.8997C50.5707 32.0655 48.5284 28.708 45.473 26.855Z" fill="#ACC6D3"/>
<path d="M65.9021 12.459C67.1124 13.6687 67.2284 15.5962 66.1719 16.9426L61.3831 23.0468C61.2561 23.2091 61.2347 23.4307 61.3287 23.6254C61.8146 24.6343 62.2485 25.678 62.6178 26.7284C62.6929 26.9414 62.8723 27.0897 63.0865 27.1154L68.0188 27.7111C67.8766 27.3882 67.7313 27.0671 67.5787 26.7504C67.4847 26.5557 67.5055 26.3341 67.6331 26.1718L72.4219 20.0676C73.4784 18.7212 73.3624 16.7937 72.1521 15.584L64.4159 7.84778C63.3972 6.8291 61.8713 6.58924 60.611 7.16724L65.9021 12.459Z" fill="#4B41B4"/>
</g>
<defs>
<clipPath id="clip0_0_483">
<rect width="80" height="80" fill="white"/>
</clipPath>
</defs>
</svg>
