<svg width="53" height="53" viewBox="0 0 53 53" fill="none" xmlns="http://www.w3.org/2000/svg">
<g clip-path="url(#clip0_0_233)">
<path d="M36.1505 44.0121L49.0471 24.6229C49.2831 24.251 49.3665 23.8025 49.2801 23.3706C49.1937 22.9387 48.9442 22.5568 48.5834 22.3042C48.3118 22.1139 47.9875 22.0135 47.6559 22.0171H37.4976V9.80502C37.4951 9.44931 37.3791 9.10368 37.1663 8.81859C36.9536 8.5335 36.6553 8.32387 36.315 8.2203C35.9747 8.11672 35.6102 8.12463 35.2747 8.24287C34.9392 8.3611 34.6502 8.58347 34.4501 8.87752L21.5313 28.2446C21.2877 28.6085 21.1975 29.0537 21.2802 29.4837C21.3629 29.9137 21.6118 30.2937 21.973 30.5413C22.2416 30.7179 22.5569 30.8102 22.8784 30.8063H33.0146V42.9963C33.0125 43.352 33.1257 43.6988 33.3372 43.9848C33.5488 44.2708 33.8473 44.4805 34.1881 44.5825C34.5289 44.6845 34.8936 44.6732 35.2275 44.5505C35.5614 44.4278 35.8465 44.2001 36.0401 43.9017L36.1505 44.0121Z" fill="#62E6BE"/>
<path opacity="0.396" d="M9.93754 44.1667C9.05901 44.1667 8.21646 43.8177 7.59525 43.1965C6.97404 42.5753 6.62504 41.7327 6.62504 40.8542C6.62504 39.9757 6.97404 39.1331 7.59525 38.5119C8.21646 37.8907 9.05901 37.5417 9.93754 37.5417H20.9792C21.8577 37.5417 22.7003 37.8907 23.3215 38.5119C23.9427 39.1331 24.2917 39.9757 24.2917 40.8542C24.2917 41.7327 23.9427 42.5753 23.3215 43.1965C22.7003 43.8177 21.8577 44.1667 20.9792 44.1667H9.93754ZM5.52087 30.9167C4.64234 30.9167 3.7998 30.5677 3.17858 29.9465C2.55737 29.3253 2.20837 28.4827 2.20837 27.6042C2.20837 26.7257 2.55737 25.8831 3.17858 25.2619C3.7998 24.6407 4.64234 24.2917 5.52087 24.2917H14.3542C15.2327 24.2917 16.0753 24.6407 16.6965 25.2619C17.3177 25.8831 17.6667 26.7257 17.6667 27.6042C17.6667 28.4827 17.3177 29.3253 16.6965 29.9465C16.0753 30.5677 15.2327 30.9167 14.3542 30.9167H5.52087ZM9.93754 17.6667C9.05901 17.6667 8.21646 17.3177 7.59525 16.6965C6.97404 16.0753 6.62504 15.2327 6.62504 14.3542C6.62504 13.4757 6.97404 12.6331 7.59525 12.0119C8.21646 11.3907 9.05901 11.0417 9.93754 11.0417H20.9792C21.8569 11.0443 22.698 11.3941 23.3186 12.0148C23.9392 12.6354 24.2891 13.4765 24.2917 14.3542C24.2853 15.2308 23.9343 16.0696 23.3145 16.6895C22.6946 17.3093 21.8558 17.6603 20.9792 17.6667H9.93754Z" fill="#62E6BE"/>
</g>
<defs>
<clipPath id="clip0_0_233">
<rect width="53" height="53" fill="white"/>
</clipPath>
</defs>
</svg>
