<svg width="80" height="80" viewBox="0 0 80 80" fill="none" xmlns="http://www.w3.org/2000/svg">
<g clip-path="url(#clip0_0_376)">
<path d="M7.27268 0.000488281H72.7256C76.7421 0.000488281 79.9983 3.25664 79.9983 7.27317V65.4546C79.9983 69.4712 76.7421 72.7273 72.7256 72.7273H7.27268C3.25615 72.7273 0 69.4712 0 65.4546V7.27317C0 3.25664 3.25615 0.000488281 7.27268 0.000488281Z" fill="#F0EAF9"/>
<path d="M3.63626 14.5464H76.362C78.3703 14.5464 79.9983 16.1744 79.9983 18.1826V18.1828C79.9983 20.1911 78.3703 21.8191 76.362 21.8191H3.63626C1.62799 21.8191 0 20.1911 0 18.1828V18.1826C0 16.1744 1.62799 14.5464 3.63626 14.5464Z" fill="#E1D5F3"/>
<path d="M7.27268 0.000488281H72.7263C76.7428 0.000488281 79.999 3.25664 79.999 7.27317V18.1821H0V7.27317C0 3.25664 3.25615 0.000488281 7.27268 0.000488281Z" fill="#6D62E6"/>
<path d="M7.27267 0.000488281H72.727C74.7352 0.000488281 76.3632 1.62848 76.3632 3.63674C76.3632 5.64501 74.7352 7.27317 72.727 7.27317H7.27267C5.2644 7.27317 3.63641 5.64518 3.63641 3.63691C3.63641 1.62865 5.2644 0.000488281 7.27267 0.000488281Z" fill="#4C40CC"/>
<path d="M5.45463 14.5464H74.545C75.5491 14.5464 76.3632 15.3605 76.3632 16.3646C76.3632 17.3687 75.5491 18.1828 74.545 18.1828H5.45463C4.45049 18.1828 3.63641 17.3687 3.63641 16.3646C3.63641 15.3605 4.45049 14.5464 5.45463 14.5464Z" fill="#421198"/>
<path d="M78.1808 25.4548C77.1767 25.4548 76.3626 26.2687 76.3626 27.2729V65.4543C76.3626 67.4626 74.7346 69.0906 72.7263 69.0906H52.7267C51.7225 69.0906 50.9084 69.9047 50.9084 70.9088C50.9084 71.9129 51.7225 72.727 52.7267 72.727H72.7263C76.7429 72.727 79.9988 69.4709 79.999 65.4543V27.273C79.999 26.2687 79.1849 25.4548 78.1808 25.4548Z" fill="#D9C9EF"/>
<path d="M1.81821 32.7268C2.82235 32.7268 3.63643 33.5409 3.63643 34.545V63.6354C3.63643 64.6395 2.82235 65.4536 1.81821 65.4536C0.814079 65.4536 0 64.6395 0 63.6354V34.545C0 33.5409 0.814079 32.7268 1.81821 32.7268Z" fill="#DFD2F2"/>
<path d="M9.09141 10.9101C10.0956 10.9101 10.9096 10.0961 10.9096 9.09189C10.9096 8.08772 10.0956 7.27368 9.09141 7.27368C8.08724 7.27368 7.27319 8.08772 7.27319 9.09189C7.27319 10.0961 8.08724 10.9101 9.09141 10.9101Z" fill="#F7B236"/>
<path d="M16.3629 10.9101C17.3671 10.9101 18.1811 10.0961 18.1811 9.09189C18.1811 8.08772 17.3671 7.27368 16.3629 7.27368C15.3587 7.27368 14.5447 8.08772 14.5447 9.09189C14.5447 10.0961 15.3587 10.9101 16.3629 10.9101Z" fill="#B39DDD"/>
<path d="M23.6361 10.9101C24.6403 10.9101 25.4543 10.0961 25.4543 9.09189C25.4543 8.08772 24.6403 7.27368 23.6361 7.27368C22.6319 7.27368 21.8179 8.08772 21.8179 9.09189C21.8179 10.0961 22.6319 10.9101 23.6361 10.9101Z" fill="#D80E70"/>
<path d="M69.0901 50.9089H32.7268C30.7186 50.9089 29.0906 49.281 29.0906 47.2727V29.0916C29.0906 27.0833 30.7186 25.4553 32.7268 25.4553H69.0901C71.0983 25.4553 72.7263 27.0833 72.7263 29.0916V47.2727C72.7263 49.281 71.0983 50.9089 69.0901 50.9089Z" fill="#6D62E6"/>
<path d="M18.1811 40H10.909C8.90069 40 7.27271 38.372 7.27271 36.3637V29.0916C7.27271 27.0833 8.90069 25.4553 10.909 25.4553H18.1811C20.1894 25.4553 21.8174 27.0833 21.8174 29.0916V36.3637C21.8174 38.372 20.1894 40 18.1811 40Z" fill="#6D62E6"/>
<path d="M18.1811 65.4536H10.909C8.90069 65.4536 7.27271 63.8256 7.27271 61.8174V54.5452C7.27271 52.5369 8.90069 50.9089 10.909 50.9089H18.1811C20.1894 50.9089 21.8174 52.5369 21.8174 54.5452V61.8174C21.8174 63.8256 20.1894 65.4536 18.1811 65.4536Z" fill="#6D62E6"/>
<path d="M30.9088 54.5447H41.817C42.8212 54.5447 43.6353 55.3588 43.6353 56.3629C43.6353 57.367 42.8212 58.1811 41.817 58.1811H30.9088C29.9047 58.1811 29.0906 57.367 29.0906 56.3629C29.0906 55.3588 29.9047 54.5447 30.9088 54.5447Z" fill="#6D62E6"/>
<path d="M67.2713 54.5447H70.9076C71.9117 54.5447 72.7258 55.3588 72.7258 56.3629C72.7258 57.367 71.9117 58.1811 70.9076 58.1811H67.2713C66.2672 58.1811 65.4531 57.367 65.4531 56.3629C65.4531 55.3588 66.2672 54.5447 67.2713 54.5447Z" fill="#6D62E6"/>
<path d="M49.0909 54.5447H59.9992C61.0033 54.5447 61.8174 55.3588 61.8174 56.3629C61.8174 57.367 61.0033 58.1811 59.9992 58.1811H49.0909C48.0868 58.1811 47.2727 57.367 47.2727 56.3629C47.2727 55.3588 48.0868 54.5447 49.0909 54.5447Z" fill="#6D62E6"/>
<path d="M30.9088 61.8179H45.4545C46.4586 61.8179 47.2727 62.6319 47.2727 63.6361C47.2727 64.6402 46.4586 65.4543 45.4545 65.4543H30.9088C29.9047 65.4543 29.0906 64.6402 29.0906 63.6361C29.0906 62.6319 29.9047 61.8179 30.9088 61.8179Z" fill="#6D62E6"/>
<path d="M52.7267 61.8179H56.3629C57.367 61.8179 58.1811 62.6319 58.1811 63.6361C58.1811 64.6402 57.367 65.4543 56.3629 65.4543H52.7267C51.7225 65.4543 50.9084 64.6402 50.9084 63.6361C50.9084 62.6319 51.7225 61.8179 52.7267 61.8179Z" fill="#6D62E6"/>
<path d="M19.9992 47.2731H9.09092C8.08678 47.2731 7.27271 46.4591 7.27271 45.4549C7.27271 44.4508 8.08678 43.6367 9.09092 43.6367H19.9992C21.0033 43.6367 21.8174 44.4508 21.8174 45.4549C21.8174 46.4591 21.0033 47.2731 19.9992 47.2731Z" fill="#6D62E6"/>
<path d="M39.9995 54.5452H36.3636C26.3222 54.5452 18.182 62.6853 18.182 72.7268C18.182 72.727 18.182 72.727 18.182 72.7271V72.8234C18.1949 74.8097 16.4418 76.3632 14.4555 76.3632H12.7271C11.723 76.3632 10.9089 77.1773 10.9089 78.1814C10.9089 79.1856 11.723 79.9996 12.7271 79.9996H25.4543C35.4956 79.9995 43.6357 71.8592 43.6357 61.8179V54.5452H39.9995Z" fill="#F7B236"/>
<path d="M43.6357 61.8179V54.5452H39.9995C39.9995 64.5865 31.8594 72.7268 21.8179 72.7268H18.1821V72.8233C18.1951 74.8094 16.4418 76.363 14.4557 76.363H12.7271C11.723 76.363 10.9089 77.1771 10.9089 78.1813C10.9089 79.1854 11.723 79.9995 12.7271 79.9995H25.4543C35.4956 79.9993 43.6357 71.8592 43.6357 61.8179Z" fill="#F58B04"/>
<path d="M78.7802 19.4008C77.666 18.2865 76.0177 17.8974 74.5229 18.3958C61.7067 22.9242 51.1479 32.2488 45.0691 44.4063L43.6357 47.2726V54.5453H50.9084L53.7747 53.1121C65.9322 47.0333 75.2568 36.4743 79.7852 23.6583C80.2836 22.1631 79.8945 20.515 78.7802 19.4008Z" fill="#62E6BE"/>
<path d="M65.0215 29.5254C63.6014 28.1054 59.3876 30.0169 55.6095 33.7949C51.8315 37.573 49.92 41.7868 51.34 43.2069C52.76 44.6269 56.9739 42.7154 60.7519 38.9373C64.53 35.1593 66.4415 30.9454 65.0215 29.5254Z" fill="#6EF8CE"/>
<path d="M74.5227 18.3956C73.8932 18.6181 73.2958 18.9046 72.6774 19.1497C72.2039 35.4536 59.8376 48.94 43.6357 50.8219V54.5453H50.9084L53.7747 53.1119C65.9322 47.0331 75.2568 36.4741 79.7854 23.6582C80.5119 21.4782 79.3335 19.1221 77.1536 18.3956C76.2997 18.111 75.3767 18.111 74.5227 18.3956Z" fill="#40AF8E"/>
<path d="M39.9995 54.5452L43.6358 58.1816L50.9084 54.5452L43.6358 47.2727L39.9995 54.5452Z" fill="#6D62E6"/>
<path d="M41.9652 56.5109L43.6358 58.1815L50.9084 54.5453L47.4196 51.0565C45.9133 49.5502 43.4714 49.5502 41.9652 51.0565C41.672 51.3496 41.4281 51.688 41.2426 52.0589C40.5003 53.5439 40.7913 55.3372 41.9652 56.5109Z" fill="#420F9B"/>
<path d="M32.4977 58.577C31.3916 57.4708 28.2048 58.8643 25.3798 61.6893C22.5548 64.5143 21.1613 67.7012 22.2674 68.8073C23.3735 69.9134 26.5603 68.5199 29.3854 65.6949C32.2104 62.8699 33.6038 59.6831 32.4977 58.577Z" fill="#FBDA9E"/>
</g>
<defs>
<clipPath id="clip0_0_376">
<rect width="80" height="80" fill="white"/>
</clipPath>
</defs>
</svg>
