<svg width="118" height="18" viewBox="0 0 118 18" fill="none" xmlns="http://www.w3.org/2000/svg">
<path d="M8.26933 0.555723C8.49931 -0.185239 9.50069 -0.185242 9.73067 0.55572L11.3286 5.70388C11.4314 6.03525 11.7264 6.2596 12.0593 6.2596L17.2303 6.2596C17.9745 6.2596 18.2839 7.25656 17.6818 7.7145L13.4984 10.8962C13.2291 11.101 13.1165 11.464 13.2193 11.7954L14.8172 16.9436C15.0472 17.6845 14.2371 18.3007 13.635 17.8428L9.45158 14.661C9.18231 14.4562 8.81769 14.4562 8.54842 14.661L4.365 17.8428C3.7629 18.3007 2.95277 17.6845 3.18275 16.9436L4.78067 11.7954C4.88353 11.464 4.77085 11.101 4.50158 10.8962L0.318166 7.7145C-0.283941 7.25656 0.0255031 6.2596 0.769749 6.2596L5.94073 6.2596C6.27357 6.2596 6.56855 6.03525 6.6714 5.70388L8.26933 0.555723Z" fill="#FC9F13"/>
<path d="M33.2693 0.555723C33.4993 -0.185239 34.5007 -0.185242 34.7307 0.55572L36.3286 5.70388C36.4314 6.03525 36.7264 6.2596 37.0593 6.2596L42.2303 6.2596C42.9745 6.2596 43.2839 7.25656 42.6818 7.7145L38.4984 10.8962C38.2291 11.101 38.1165 11.464 38.2193 11.7954L39.8172 16.9436C40.0472 17.6845 39.2371 18.3007 38.635 17.8428L34.4516 14.661C34.1823 14.4562 33.8177 14.4562 33.5484 14.661L29.365 17.8428C28.7629 18.3007 27.9528 17.6845 28.1828 16.9436L29.7807 11.7954C29.8835 11.464 29.7709 11.101 29.5016 10.8962L25.3182 7.7145C24.7161 7.25656 25.0255 6.2596 25.7697 6.2596L30.9407 6.2596C31.2736 6.2596 31.5686 6.03525 31.6714 5.70388L33.2693 0.555723Z" fill="#FC9F13"/>
<path d="M58.2693 0.555723C58.4993 -0.185239 59.5007 -0.185242 59.7307 0.55572L61.3286 5.70388C61.4314 6.03525 61.7264 6.2596 62.0593 6.2596L67.2303 6.2596C67.9745 6.2596 68.2839 7.25656 67.6818 7.7145L63.4984 10.8962C63.2291 11.101 63.1165 11.464 63.2193 11.7954L64.8172 16.9436C65.0472 17.6845 64.2371 18.3007 63.635 17.8428L59.4516 14.661C59.1823 14.4562 58.8177 14.4562 58.5484 14.661L54.365 17.8428C53.7629 18.3007 52.9528 17.6845 53.1828 16.9436L54.7807 11.7954C54.8835 11.464 54.7709 11.101 54.5016 10.8962L50.3182 7.7145C49.7161 7.25656 50.0255 6.2596 50.7697 6.2596L55.9407 6.2596C56.2736 6.2596 56.5686 6.03525 56.6714 5.70388L58.2693 0.555723Z" fill="#FC9F13"/>
<path d="M83.2693 0.555723C83.4993 -0.185239 84.5007 -0.185242 84.7307 0.55572L86.3286 5.70388C86.4314 6.03525 86.7264 6.2596 87.0593 6.2596L92.2303 6.2596C92.9745 6.2596 93.2839 7.25656 92.6818 7.7145L88.4984 10.8962C88.2291 11.101 88.1165 11.464 88.2193 11.7954L89.8172 16.9436C90.0472 17.6845 89.2371 18.3007 88.635 17.8428L84.4516 14.661C84.1823 14.4562 83.8177 14.4562 83.5484 14.661L79.365 17.8428C78.7629 18.3007 77.9528 17.6845 78.1828 16.9436L79.7807 11.7954C79.8835 11.464 79.7709 11.101 79.5016 10.8962L75.3182 7.7145C74.7161 7.25656 75.0255 6.2596 75.7697 6.2596L80.9407 6.2596C81.2736 6.2596 81.5686 6.03525 81.6714 5.70388L83.2693 0.555723Z" fill="#FC9F13"/>
<path d="M108.269 0.555723C108.499 -0.185239 109.501 -0.185242 109.731 0.55572L111.329 5.70388C111.431 6.03525 111.726 6.2596 112.059 6.2596L117.23 6.2596C117.974 6.2596 118.284 7.25656 117.682 7.7145L113.498 10.8962C113.229 11.101 113.116 11.464 113.219 11.7954L114.817 16.9436C115.047 17.6845 114.237 18.3007 113.635 17.8428L109.452 14.661C109.182 14.4562 108.818 14.4562 108.548 14.661L104.365 17.8428C103.763 18.3007 102.953 17.6845 103.183 16.9436L104.781 11.7954C104.884 11.464 104.771 11.101 104.502 10.8962L100.318 7.7145C99.7161 7.25656 100.026 6.2596 100.77 6.2596L105.941 6.2596C106.274 6.2596 106.569 6.03525 106.671 5.70388L108.269 0.555723Z" fill="#E8E9EA" fill-opacity="0.2"/>
</svg>
