<svg width="80" height="80" viewBox="0 0 80 80" fill="none" xmlns="http://www.w3.org/2000/svg">
<path d="M78.4 39.9906C78.4 62.7331 58.6043 80.3919 36.48 78.2306C16.928 76.4544 1.6 60.0066 1.6 39.9906C1.6 18.7906 18.8 1.59058 40 1.59058C61.3394 1.59058 78.4 18.925 78.4 39.9906Z" fill="url(#paint0_linear_0_453)"/>
<path d="M40 1.59033C18.8 1.59033 1.6 18.7903 1.6 39.9903C1.6 60.0063 16.928 76.4543 36.48 78.2305C58.6043 80.3916 78.4 62.7329 78.4 39.9903C78.4 18.9247 61.3394 1.59033 40 1.59033Z" fill="#6D62E6"/>
<path d="M64.8774 34.1331V62.9964C64.8774 65.2383 63.084 67.0319 60.8421 67.0319H19.6485C17.4067 67.0319 15.6131 65.2385 15.6131 62.9964V34.1331H64.8774Z" fill="#3B3E42"/>
<path d="M62.075 40.2141V62.9964C62.075 63.6688 61.5426 64.2295 60.8421 64.2295H19.6485C18.9478 64.2295 18.4155 63.6688 18.4155 62.9964V40.2141H62.075Z" fill="#62E6BE"/>
<path opacity="0.1" d="M62.075 40.2141V62.9964C62.075 63.6688 61.5426 64.2295 60.8421 64.2295H19.6485C18.9478 64.2295 18.4155 63.6688 18.4155 62.9964V40.2141H62.075Z" fill="white"/>
<path d="M62.075 42.0354V62.9964C62.075 63.6688 61.5426 64.2295 60.8421 64.2295H23.5717C27.6069 53.3287 50.0533 42.9884 62.075 42.0354Z" fill="#51D5AD"/>
<path d="M64.1597 19.0634L63.6501 16.2794C63.2464 14.0744 61.1594 12.6328 58.9541 13.0365L18.4338 20.4534C17.0555 20.7058 15.9688 21.6168 15.4438 22.7958C15.1464 23.5054 15.0397 24.3227 15.191 25.1494L15.6133 34.1333H64.8774V27.2674H19.3123H19.3392L64.1597 19.0634Z" fill="#3B3E42"/>
<path d="M32.6805 24.8253L28.7939 25.5367L20.8043 20.0192L24.7184 19.3027L32.6805 24.8253Z" fill="white"/>
<path d="M32.9032 27.2673L26.0098 34.1331H22.0584L28.9522 27.2673H32.9032Z" fill="white"/>
<path d="M55.0082 20.7383L47.0186 15.2209L50.9326 14.5044L58.9222 20.0218L55.0082 20.7383Z" fill="white"/>
<path d="M59.5811 27.2673L52.6874 34.1331H48.7082L55.6019 27.2673H59.5811Z" fill="white"/>
<path d="M45.8014 22.4237L41.9149 23.135L33.9251 17.6176L37.8118 16.9062L45.8014 22.4237Z" fill="white"/>
<path d="M46.2421 27.2673L39.3485 34.1331H35.3973L42.291 27.2673H46.2421Z" fill="white"/>
<path d="M21.6661 27.2673C21.7502 27.8838 21.5541 28.5566 21.0778 29.0331L15.6133 34.1331L15.191 25.1493C15.0397 24.3225 15.1464 23.5053 15.4438 22.7957L21.0253 26.6739C21.123 26.7416 21.221 26.8091 21.2962 26.9091L19.3392 27.2673H19.3123H21.6661Z" fill="#2C2F33"/>
<path d="M18.5576 26.3187C18.6333 26.7323 18.363 27.1235 17.9771 27.1942C17.5635 27.2699 17.1723 26.9996 17.0966 26.5862C17.0261 26.2006 17.2962 25.8089 17.7098 25.7332C18.0955 25.6623 18.4869 25.9329 18.5576 26.3187Z" fill="white"/>
<path d="M18.6117 29.2958C18.6117 29.7163 18.2754 30.0524 17.883 30.0524C17.4626 30.0524 17.1264 29.7161 17.1264 29.2958C17.1264 28.9038 17.4627 28.5671 17.883 28.5671C18.2755 28.5671 18.6117 28.9038 18.6117 29.2958Z" fill="white"/>
<path d="M23.6154 10.0023C25.7566 10.0023 27.4824 11.7361 27.4824 13.8693C27.4824 11.7319 29.2118 10.0023 31.3462 10.0023C29.2198 10.0023 27.4824 8.27957 27.4824 6.13525C27.4826 8.27013 25.7466 10.0023 23.6154 10.0023Z" fill="white"/>
<path d="M43.1282 8.25047C43.9906 8.25047 44.6858 8.94887 44.6858 9.80807C44.6858 8.94711 45.3824 8.25047 46.2421 8.25047C45.3856 8.25047 44.6858 7.55655 44.6858 6.69287C44.6858 7.55271 43.9866 8.25047 43.1282 8.25047Z" fill="white"/>
<path d="M67.5434 27.2068C68.9469 27.2068 70.0781 28.3433 70.0781 29.7416C70.0781 28.3404 71.2117 27.2068 72.6107 27.2068C71.217 27.2068 70.0781 26.0777 70.0781 24.6721C70.0781 26.0715 68.9403 27.2068 67.5434 27.2068Z" fill="white"/>
<path d="M71.1893 41.167C72.8333 41.167 74.1582 42.498 74.1582 44.1359C74.1582 42.4948 75.4861 41.167 77.1248 41.167C75.4922 41.167 74.1582 39.8444 74.1582 38.198C74.1582 39.837 72.8254 41.167 71.1893 41.167Z" fill="white"/>
<path d="M5.70928 32.155C7.0272 32.155 8.0896 33.2222 8.0896 34.5353C8.0896 33.2196 9.15408 32.155 10.4678 32.155C9.15904 32.155 8.0896 31.0947 8.0896 29.7747C8.0896 31.0889 7.02112 32.155 5.70928 32.155Z" fill="white"/>
<path d="M8.08864 47.9736C9.6528 47.9736 10.9136 49.2402 10.9136 50.7986C10.9136 49.2372 12.177 47.9736 13.7362 47.9736C12.1827 47.9736 10.9136 46.7152 10.9136 45.1487C10.9136 46.7084 9.64544 47.9736 8.08864 47.9736Z" fill="white"/>
<defs>
<linearGradient id="paint0_linear_0_453" x1="39.3344" y1="80.9682" x2="40.4016" y2="15.2242" gradientUnits="userSpaceOnUse">
<stop offset="5.3836e-07" stop-color="#FFCB46"/>
<stop offset="1" stop-color="#FCB63A"/>
</linearGradient>
</defs>
</svg>
