<svg width="24" height="24" viewBox="0 0 24 24" fill="none" xmlns="http://www.w3.org/2000/svg">
<g clip-path="url(#clip0_0_320)">
<path d="M22.717 10.5496C21.7617 7.2675 20.6844 5.57165 20.667 5.54123C20.6056 5.46628 19.0833 3.64453 15.4143 2.29706L14.9295 3.61706C16.6749 4.25812 17.9133 5.04018 18.5943 5.5455C16.5611 4.93832 14.1423 4.56646 12 4.56646C9.85772 4.56646 7.43892 4.93832 5.40567 5.5455C6.08667 5.04023 7.32502 4.25812 9.0705 3.61706L8.58567 2.29706C4.91672 3.64453 3.39441 5.46628 3.333 5.54123C3.31561 5.57165 2.23828 7.2675 1.28306 10.5496C0.362438 13.7125 0.0127031 18.1745 0 18.3534C0.0820312 18.4817 1.96875 21.7029 7.11061 21.7029L8.41392 19.8157C6.95377 19.4279 5.56144 18.8027 4.28691 17.9543L5.06611 16.7837C7.12228 18.1523 9.51998 18.8758 12 18.8758C14.48 18.8758 16.8777 18.1523 18.9339 16.7837L19.7131 17.9543C18.4386 18.8027 17.0462 19.4279 15.5861 19.8157L16.8894 21.7029C22.0312 21.7029 23.918 18.4817 24 18.3534C23.9873 18.1745 23.6376 13.7125 22.717 10.5496ZM8.74884 14.2284H7.34259V11.8847H8.74884V14.2284ZM16.6574 14.2284H15.2512V11.8847H16.6574V14.2284Z" fill="white"/>
</g>
<defs>
<clipPath id="clip0_0_320">
<rect width="24" height="24" fill="white"/>
</clipPath>
</defs>
</svg>
