<svg width="53" height="53" viewBox="0 0 53 53" fill="none" xmlns="http://www.w3.org/2000/svg">
<g clip-path="url(#clip0_0_238)">
<path d="M19.875 22.0833V41.9583L22.4146 42.7975C25.1157 43.6863 27.9407 44.141 30.7842 44.1446H38.7121C40.2456 44.1428 41.731 43.6092 42.915 42.6346C44.0989 41.6601 44.9082 40.305 45.2046 38.8004L46.8388 30.5192C47.0293 29.5191 46.9895 28.4887 46.7226 27.5063C46.4556 26.5239 45.9685 25.6151 45.2981 24.8489C44.6277 24.0828 43.7916 23.4793 42.8533 23.0843C41.915 22.6893 40.8991 22.5131 39.8825 22.5692L31.9325 23.0771L32.7275 14.2217C32.7965 13.4196 32.5446 12.6228 32.0272 12.0061C31.5098 11.3893 30.769 11.0028 29.9671 10.9312C29.8725 10.9137 29.7762 10.9063 29.68 10.9092C28.6677 10.9031 27.6712 11.1605 26.7884 11.6561C25.9057 12.1517 25.167 12.8684 24.645 13.7358L19.7205 21.9287L19.875 22.0833Z" fill="#62E6BE"/>
<path opacity="0.404" d="M13.25 19.875H6.62502C5.40539 19.875 4.41669 20.8637 4.41669 22.0833V41.9583C4.41669 43.178 5.40539 44.1667 6.62502 44.1667H13.25C14.4697 44.1667 15.4584 43.178 15.4584 41.9583V22.0833C15.4584 20.8637 14.4697 19.875 13.25 19.875Z" fill="#62E6BE"/>
</g>
<defs>
<clipPath id="clip0_0_238">
<rect width="53" height="53" fill="white"/>
</clipPath>
</defs>
</svg>
