<svg width="32" height="32" viewBox="0 0 32 32" fill="none" xmlns="http://www.w3.org/2000/svg">
<g id="Objects" clip-path="url(#clip0_0_44)">
<path id="Vector" d="M14.3864 27.9361V28.6666H14.351V28.695H3.37568L3.55241 27.8191C3.58423 27.6631 3.61957 27.5106 3.65139 27.3652C3.6832 27.2269 3.72208 27.0851 3.76096 26.9432L3.78217 26.8652L3.80338 26.7907C3.83519 26.6808 3.86701 26.578 3.89882 26.4716V26.4574C3.9271 26.3723 3.95537 26.2872 3.98719 26.1985C4.019 26.1028 4.05435 26.0071 4.08969 25.9113C4.13211 25.7907 4.1816 25.6666 4.23108 25.5461C4.2735 25.4397 4.31592 25.3404 4.3654 25.2305C4.38308 25.1879 4.40075 25.1418 4.42549 25.0993C4.47145 24.9964 4.51386 24.9042 4.55628 24.8156C4.57395 24.7766 4.59163 24.7376 4.61284 24.7021C4.65879 24.6099 4.70827 24.5141 4.75776 24.4219C4.77543 24.3865 4.79664 24.3439 4.82492 24.2978C4.82492 24.2978 4.82492 24.2943 4.82492 24.2907V24.2801L4.83552 24.2659C4.89915 24.1454 4.95924 24.039 5.01933 23.9397C5.07589 23.8439 5.13598 23.7411 5.20314 23.6383L5.22788 23.6028C5.24555 23.5744 5.26676 23.5425 5.28444 23.5141L5.30918 23.4751C5.3728 23.3723 5.44703 23.2624 5.51773 23.1595C5.59903 23.0425 5.68386 22.9219 5.7793 22.7943C5.84293 22.7056 5.91008 22.617 5.99845 22.5035L6.00552 22.4964L6.01259 22.4893L6.03027 22.468C6.05501 22.4326 6.08682 22.3971 6.11157 22.3652C6.18226 22.2766 6.25649 22.1844 6.33779 22.0922C6.35546 22.0673 6.37314 22.0532 6.38374 22.039C6.46504 21.9432 6.5428 21.8546 6.63117 21.7624C6.65592 21.734 6.68066 21.7056 6.70894 21.6808C6.79377 21.5886 6.88567 21.4929 7.00585 21.3723C7.91428 20.461 8.93582 19.7021 10.0528 19.1134H4.59516C3.16713 20.5638 2.04308 22.2446 1.2513 24.117C0.431238 26.0851 0.00706948 28.1808 0 30.3439V31.7553V31.9964H17.6065V17.6489V15.0212V4.27656V3.54606H17.649L18.3771 3.53897H28.6243L28.4476 4.41485C27.9527 6.85812 26.7544 9.08861 24.9835 10.8617C24.6089 11.2375 24.2165 11.5851 23.8029 11.9078H28.4688C29.3984 10.7553 30.1584 9.48223 30.7346 8.11698C31.5652 6.14535 31.9894 4.04961 31.9965 1.89003V0.237549H14.3864V27.9397V27.9361Z" fill="#6D62E6"/>
<path id="Vector_2" d="M3.30145 14.344V3.37589L4.17099 3.54965C6.62057 4.03901 8.85806 5.24113 10.6325 7.02482C10.7527 7.14539 10.8729 7.27305 10.9895 7.40071V3.00709C10.0245 2.30851 8.98177 1.7234 7.886 1.25887C5.92422 0.421986 3.83166 0 1.67547 0H0V16.6809H10.9895V14.344H3.30145Z" fill="#6D62E6" fill-opacity="0.4"/>
<path id="Vector_3" d="M28.4617 16.6809V28.6206L27.5922 28.4468C25.1461 27.961 22.9122 26.7624 21.1271 24.9752C21.0883 24.9362 21.0529 24.9007 21.014 24.8617V29.1702C21.9048 29.7873 22.8627 30.3156 23.8701 30.7412C25.839 31.578 27.928 32 30.0842 32H31.7561V14.344H21.0176V16.6809H28.4617Z" fill="#6D62E6" fill-opacity="0.4"/>
</g>
<defs>
<clipPath id="clip0_0_44">
<rect width="32" height="32" fill="white"/>
</clipPath>
</defs>
</svg>
