<svg width="82" height="19" viewBox="0 0 82 19" fill="none" xmlns="http://www.w3.org/2000/svg">
<g id="CryptoCrew">
<path d="M5.98724 18.324C5.12324 18.324 4.30724 18.156 3.53924 17.82C2.77124 17.484 2.10324 17.008 1.53524 16.392C0.975242 15.776 0.571242 15.048 0.323242 14.208L3.11924 13.452C3.31924 14.14 3.68324 14.672 4.21124 15.048C4.74724 15.416 5.33524 15.596 5.97524 15.588C6.54324 15.588 7.05124 15.456 7.49924 15.192C7.94724 14.928 8.29924 14.572 8.55524 14.124C8.81124 13.668 8.93924 13.16 8.93924 12.6C8.93924 11.744 8.66324 11.028 8.11124 10.452C7.55924 9.87597 6.84724 9.58797 5.97524 9.58797C5.71124 9.58797 5.45124 9.62397 5.19524 9.69597C4.94724 9.76797 4.70724 9.86797 4.47524 9.99597L3.15524 7.71597L8.96324 2.74797L9.21524 3.44397H0.995242V0.719971H11.5912V3.45597L6.92324 7.94397L6.89924 7.09197C7.94724 7.16397 8.83924 7.45597 9.57524 7.96797C10.3192 8.47997 10.8872 9.13997 11.2792 9.94797C11.6792 10.756 11.8792 11.64 11.8792 12.6C11.8792 13.688 11.6112 14.664 11.0752 15.528C10.5472 16.392 9.83524 17.076 8.93924 17.58C8.05124 18.076 7.06724 18.324 5.98724 18.324Z" fill="white"/>
<path d="M15.2286 18V0.719971H18.1206V15.288H25.7526V18H15.2286Z" fill="white"/>
<path d="M31.4094 18.36C30.4734 18.36 29.6814 18.184 29.0334 17.832C28.3854 17.472 27.8934 16.996 27.5574 16.404C27.2294 15.812 27.0654 15.16 27.0654 14.448C27.0654 13.824 27.1694 13.264 27.3774 12.768C27.5854 12.264 27.9054 11.832 28.3374 11.472C28.7694 11.104 29.3294 10.804 30.0174 10.572C30.5374 10.404 31.1454 10.252 31.8414 10.116C32.5454 9.97997 33.3054 9.85597 34.1214 9.74397C34.9454 9.62397 35.8054 9.49597 36.7014 9.35997L35.6694 9.94797C35.6774 9.05197 35.4774 8.39197 35.0694 7.96797C34.6614 7.54397 33.9734 7.33197 33.0054 7.33197C32.4214 7.33197 31.8574 7.46797 31.3134 7.73997C30.7694 8.01197 30.3894 8.47997 30.1734 9.14397L27.5334 8.31597C27.8534 7.21997 28.4614 6.33997 29.3574 5.67597C30.2614 5.01197 31.4774 4.67997 33.0054 4.67997C34.1574 4.67997 35.1694 4.86797 36.0414 5.24397C36.9214 5.61997 37.5734 6.23597 37.9974 7.09197C38.2294 7.54797 38.3694 8.01597 38.4174 8.49597C38.4654 8.96797 38.4894 9.48397 38.4894 10.044V18H35.9574V15.192L36.3774 15.648C35.7934 16.584 35.1094 17.272 34.3254 17.712C33.5494 18.144 32.5774 18.36 31.4094 18.36ZM31.9854 16.056C32.6414 16.056 33.2014 15.94 33.6654 15.708C34.1294 15.476 34.4974 15.192 34.7694 14.856C35.0494 14.52 35.2374 14.204 35.3334 13.908C35.4854 13.54 35.5694 13.12 35.5854 12.648C35.6094 12.168 35.6214 11.78 35.6214 11.484L36.5094 11.748C35.6374 11.884 34.8894 12.004 34.2654 12.108C33.6414 12.212 33.1054 12.312 32.6574 12.408C32.2094 12.496 31.8134 12.596 31.4694 12.708C31.1334 12.828 30.8494 12.968 30.6174 13.128C30.3854 13.288 30.2054 13.472 30.0774 13.68C29.9574 13.888 29.8974 14.132 29.8974 14.412C29.8974 14.732 29.9774 15.016 30.1374 15.264C30.2974 15.504 30.5294 15.696 30.8334 15.84C31.1454 15.984 31.5294 16.056 31.9854 16.056Z" fill="white"/>
<path d="M50.5776 18V11.76C50.5776 11.352 50.5496 10.9 50.4936 10.404C50.4376 9.90797 50.3056 9.43197 50.0976 8.97597C49.8976 8.51197 49.5936 8.13197 49.1856 7.83597C48.7856 7.53997 48.2416 7.39197 47.5536 7.39197C47.1856 7.39197 46.8216 7.45197 46.4616 7.57197C46.1016 7.69197 45.7736 7.89997 45.4776 8.19597C45.1896 8.48397 44.9576 8.88397 44.7816 9.39597C44.6056 9.89997 44.5176 10.548 44.5176 11.34L42.8016 10.608C42.8016 9.50397 43.0136 8.50397 43.4376 7.60797C43.8696 6.71197 44.5016 5.99997 45.3336 5.47197C46.1656 4.93597 47.1896 4.66797 48.4056 4.66797C49.3656 4.66797 50.1576 4.82797 50.7816 5.14797C51.4056 5.46797 51.9016 5.87597 52.2696 6.37197C52.6376 6.86797 52.9096 7.39597 53.0856 7.95597C53.2616 8.51597 53.3736 9.04797 53.4216 9.55197C53.4776 10.048 53.5056 10.452 53.5056 10.764V18H50.5776ZM41.5896 18V5.03997H44.1696V9.05997H44.5176V18H41.5896Z" fill="white"/>
<path d="M62.0541 18.36C60.7181 18.36 59.5781 18.064 58.6341 17.472C57.6901 16.872 56.9661 16.056 56.4621 15.024C55.9661 13.992 55.7141 12.824 55.7061 11.52C55.7141 10.192 55.9741 9.01597 56.4861 7.99197C57.0061 6.95997 57.7421 6.15197 58.6941 5.56797C59.6461 4.97597 60.7781 4.67997 62.0901 4.67997C63.5621 4.67997 64.8061 5.05197 65.8221 5.79597C66.8461 6.53197 67.5141 7.53997 67.8261 8.81997L64.9461 9.59997C64.7221 8.90397 64.3501 8.36397 63.8301 7.97997C63.3101 7.58797 62.7181 7.39197 62.0541 7.39197C61.3021 7.39197 60.6821 7.57197 60.1941 7.93197C59.7061 8.28397 59.3461 8.77197 59.1141 9.39597C58.8821 10.02 58.7661 10.728 58.7661 11.52C58.7661 12.752 59.0421 13.748 59.5941 14.508C60.1461 15.268 60.9661 15.648 62.0541 15.648C62.8221 15.648 63.4261 15.472 63.8661 15.12C64.3141 14.768 64.6501 14.26 64.8741 13.596L67.8261 14.256C67.4261 15.576 66.7261 16.592 65.7261 17.304C64.7261 18.008 63.5021 18.36 62.0541 18.36Z" fill="white"/>
<path d="M75.7712 18.36C74.4592 18.36 73.3072 18.076 72.3152 17.508C71.3232 16.94 70.5472 16.152 69.9872 15.144C69.4352 14.136 69.1592 12.976 69.1592 11.664C69.1592 10.248 69.4312 9.01997 69.9752 7.97997C70.5192 6.93197 71.2752 6.11997 72.2432 5.54397C73.2112 4.96797 74.3312 4.67997 75.6032 4.67997C76.9472 4.67997 78.0872 4.99597 79.0232 5.62797C79.9672 6.25197 80.6672 7.13597 81.1232 8.27997C81.5792 9.42397 81.7512 10.772 81.6392 12.324H78.7712V11.268C78.7632 9.85997 78.5152 8.83197 78.0272 8.18397C77.5392 7.53597 76.7712 7.21197 75.7232 7.21197C74.5392 7.21197 73.6592 7.57997 73.0832 8.31597C72.5072 9.04397 72.2192 10.112 72.2192 11.52C72.2192 12.832 72.5072 13.848 73.0832 14.568C73.6592 15.288 74.4992 15.648 75.6032 15.648C76.3152 15.648 76.9272 15.492 77.4392 15.18C77.9592 14.86 78.3592 14.4 78.6392 13.8L81.4952 14.664C80.9992 15.832 80.2312 16.74 79.1912 17.388C78.1592 18.036 77.0192 18.36 75.7712 18.36ZM71.3072 12.324V10.14H80.2232V12.324H71.3072Z" fill="white"/>
</g>
</svg>
