<svg width="47" height="53" viewBox="0 0 47 53" fill="none" xmlns="http://www.w3.org/2000/svg">
<g clip-path="url(#clip0_0_229)">
<path opacity="0.401" d="M0.0772407 12.8951C0.0711641 11.2717 0.578319 9.688 1.52625 8.37015C2.47417 7.0523 3.81437 6.06777 5.35536 5.55722L20.7778 0.406407C22.3539 -0.133597 24.0649 -0.133597 25.6411 0.406407L41.0892 5.55579C42.6276 6.06504 43.9661 7.0466 44.9143 8.36072C45.8624 9.67485 46.3719 11.2546 46.3702 12.8751V26.5924C46.3702 40.7532 32.0291 49.3527 25.9271 52.3651C25.0739 52.7843 24.1358 53.0024 23.1851 53.0024C22.2344 53.0024 21.2963 52.7843 20.443 52.3651C14.3153 49.327 0 40.7275 0 26.5667V12.8178L0.0772407 12.8951Z" fill="#62E6BE"/>
<path d="M32.7756 19.6649C33.0142 19.9032 33.2036 20.1861 33.3328 20.4976C33.4619 20.809 33.5284 21.1429 33.5284 21.4801C33.5284 21.8173 33.4619 22.1512 33.3328 22.4626C33.2036 22.7741 33.0142 23.057 32.7756 23.2953L23.9187 32.1264C23.0456 32.9924 21.8656 33.4783 20.6359 33.4783C19.4062 33.4783 18.2263 32.9924 17.3532 32.1264L13.6456 28.4189C13.4012 28.1813 13.2068 27.8971 13.0741 27.5832C12.9414 27.2692 12.873 26.9317 12.873 26.5909C12.873 26.25 12.9414 25.9126 13.0741 25.5986C13.2068 25.2846 13.4012 25.0004 13.6456 24.7628C13.8807 24.5186 14.1626 24.3242 14.4745 24.1915C14.7864 24.0588 15.1218 23.9904 15.4608 23.9904C15.7998 23.9904 16.1352 24.0588 16.4471 24.1915C16.759 24.3242 17.0409 24.5186 17.276 24.7628L20.5973 28.0842L29.068 19.5877C29.3031 19.3434 29.585 19.1491 29.8969 19.0164C30.2087 18.8837 30.5442 18.8152 30.8832 18.8152C31.2222 18.8152 31.5576 18.8837 31.8695 19.0164C32.1814 19.1491 32.4633 19.3434 32.6983 19.5877L32.7756 19.6649Z" fill="#62E6BE"/>
</g>
<defs>
<clipPath id="clip0_0_229">
<rect width="46.3702" height="53" fill="white"/>
</clipPath>
</defs>
</svg>
