<svg width="80" height="80" viewBox="0 0 80 80" fill="none" xmlns="http://www.w3.org/2000/svg">
<g clip-path="url(#clip0_0_405)">
<path d="M38.3901 3.5332C17.3033 3.5332 0.208984 20.6275 0.208984 41.7143C0.208984 43.9667 0.405657 46.1729 0.779677 48.3181L32.253 79.402C34.2512 79.7249 36.3005 79.8954 38.3899 79.8954C59.4767 79.8954 76.571 62.8012 76.571 41.7144C76.571 20.6276 59.4769 3.5332 38.3901 3.5332Z" fill="#746BF9"/>
<path d="M49.2842 18.5612C54.3808 18.5612 58.5125 14.4295 58.5125 9.33282C58.5125 4.23616 54.3808 0.104492 49.2842 0.104492C44.1875 0.104492 40.0558 4.23616 40.0558 9.33282C40.0558 14.4295 44.1875 18.5612 49.2842 18.5612Z" fill="#42C3FC"/>
<path d="M53.323 17.6316C53.2566 17.5766 53.1818 17.5297 53.0954 17.4996C50.6663 16.6539 50.8664 14.7422 51.1446 13.785C51.2364 13.4692 51.117 13.1348 50.8496 12.9436C49.8976 12.2635 50.198 11.2013 50.4045 10.7183C50.4792 10.5435 50.4877 10.3476 50.4231 10.1688L48.7327 5.4945C48.6628 5.30173 48.516 5.14885 48.3303 5.06173C46.2372 4.07977 46.558 1.75383 46.7862 0.816912C46.8161 0.694264 46.8127 0.568656 46.7815 0.450684C42.9014 1.54189 40.0558 5.10381 40.0558 9.33273C40.0558 14.4294 44.1875 18.5611 49.2842 18.5611C50.7327 18.5611 52.103 18.2265 53.323 17.6316Z" fill="#1AA9E8"/>
<path d="M49.2842 5.15259C46.5443 5.15259 44.1539 6.64805 42.8842 8.86708C42.719 9.15585 42.719 9.50993 42.8842 9.7987C44.1539 12.0177 46.5445 13.5132 49.2842 13.5132C52.024 13.5132 54.4145 12.0177 55.6843 9.7987C55.8495 9.50993 55.8495 9.15585 55.6843 8.86708C54.4145 6.64805 52.024 5.15259 49.2842 5.15259Z" fill="#E9EFFF"/>
<path d="M50.8496 12.9439C49.8976 12.2638 50.1981 11.2015 50.4045 10.7186C50.4792 10.5437 50.4878 10.3478 50.4231 10.1691L48.7327 5.49477C48.6903 5.37742 48.6167 5.27737 48.5259 5.19556C46.108 5.44319 44.0351 6.8559 42.8842 8.86719C42.719 9.15596 42.719 9.51004 42.8842 9.79881C44.1539 12.0178 46.5443 13.5133 49.2842 13.5133C49.9168 13.5133 50.5295 13.4302 51.1153 13.2803C51.0609 13.1488 50.9717 13.031 50.8496 12.9439Z" fill="#BEC8F7"/>
<path d="M78.5788 24.4856C79.751 19.5265 76.6812 14.5561 71.7222 13.3839C66.7631 12.2117 61.7927 15.2815 60.6205 20.2406C59.4482 25.1996 62.5181 30.17 67.4771 31.3422C72.4362 32.5145 77.4066 29.4446 78.5788 24.4856Z" fill="#62E6BE"/>
<path d="M72.6488 25.4849C72.624 25.1782 72.3979 24.9298 72.1002 24.8515C71.8495 24.7856 71.6851 24.6304 71.6018 24.5319C71.5666 24.4901 71.5378 24.4443 71.5139 24.3952C71.3689 24.0976 70.5332 22.5228 68.6346 21.5031C67.1688 20.716 67.298 19.6145 67.5111 19.0188C67.6064 18.7527 67.535 18.4573 67.3327 18.26C65.5293 16.4997 66.3886 14.6107 66.8948 13.8172C66.9609 13.7135 66.9972 13.5976 67.0067 13.4802C63.1667 14.5971 60.3596 18.1397 60.3596 22.34C60.3596 27.4366 64.4912 31.5683 69.5879 31.5683C72.3379 31.5683 74.8053 30.3641 76.496 28.4558C73.3178 28.5917 72.7356 26.56 72.6488 25.4849Z" fill="#62E6BE"/>
<path d="M74.5419 20.2142C73.7074 18.6857 71.7483 18.1798 70.229 19.0312L69.8578 19.2393C69.6903 19.3332 69.486 19.3332 69.3184 19.2393L68.8799 18.9936C67.3503 18.1365 65.4151 18.7141 64.6052 20.2691H64.605C63.8409 21.7363 64.3552 23.5519 65.7858 24.3825C66.9923 25.0832 68.1361 25.961 69.0973 27.0097C69.36 27.2963 69.8162 27.2963 70.0789 27.0095C71.0402 25.961 72.1836 25.0833 73.3904 24.3825C74.8387 23.5413 75.348 21.6906 74.5419 20.2142Z" fill="#E9EFFF"/>
<path d="M65.7857 24.3824C66.9922 25.083 68.1359 25.9609 69.0971 27.0095C69.3599 27.2961 69.816 27.2961 70.0788 27.0094C70.7728 26.2523 71.5626 25.5858 72.4019 25.0091C72.3165 24.9361 72.2137 24.8814 72.1002 24.8514C71.8495 24.7855 71.6851 24.6303 71.6018 24.5318C71.5666 24.49 71.5378 24.4442 71.5139 24.3951C71.3689 24.0975 70.5332 22.5227 68.6346 21.503C67.1688 20.7159 67.298 19.6144 67.5111 19.0187C67.5599 18.8825 67.5644 18.7389 67.5306 18.6044C66.3531 18.5409 65.1877 19.1498 64.605 20.2688H64.6048C63.8408 21.7362 64.355 23.5517 65.7857 24.3824Z" fill="#BEC8F7"/>
<path d="M77.2834 52.5701C80.8868 48.9667 80.8868 43.1246 77.2834 39.5212C73.6801 35.9179 67.8379 35.9179 64.2346 39.5212C60.6312 43.1246 60.6312 48.9667 64.2346 52.5701C67.8379 56.1734 73.6801 56.1734 77.2834 52.5701Z" fill="#FFB332"/>
<path d="M72.5868 51.489L70.3768 41.5102C67.1242 40.2986 68.4344 37.123 68.4386 37.1125C64.4716 38.1461 61.5432 41.7523 61.5432 46.0429C61.5432 51.1396 65.6749 55.2712 70.7715 55.2712C71.9749 55.2712 73.1233 55.0384 74.1774 54.6195C71.8866 53.854 72.5868 51.489 72.5868 51.489Z" fill="#FF9100"/>
<path d="M66.626 41.5103H74.9169C75.6495 41.5103 76.249 42.1098 76.249 42.8424V48.7346C76.249 49.4674 75.6495 50.0667 74.9169 50.0667H73.7311C73.599 50.0667 73.4755 50.1333 73.4031 50.2439L72.5864 51.489C72.3881 51.7916 71.9444 51.7916 71.746 51.489L70.9294 50.2439C70.8569 50.1334 70.7336 50.0667 70.6013 50.0667H66.6257C65.893 50.0667 65.2935 49.4672 65.2935 48.7346V42.8424C65.2938 42.1096 65.8934 41.5103 66.626 41.5103Z" fill="#E9EFFF"/>
<path d="M69.0446 48.7345V42.8424C69.0446 42.1096 69.6441 41.5103 70.3768 41.5103H66.626C65.8933 41.5103 65.2938 42.1098 65.2938 42.8424V48.7346C65.2938 49.4672 65.8933 50.0667 66.626 50.0667H70.3768C69.6441 50.0667 69.0446 49.4672 69.0446 48.7345Z" fill="#BEC8F7"/>
<path d="M46.9484 5.53066C46.4595 6.08172 46.1622 6.80654 46.1622 7.60118C46.1622 9.32541 47.5599 10.7232 49.2842 10.7232C51.0084 10.7232 52.4062 9.32541 52.4062 7.60118C52.4062 6.80654 52.1088 6.08187 51.6199 5.53082C50.8859 5.28568 50.1006 5.15259 49.2842 5.15259C48.4677 5.15243 47.6824 5.28552 46.9484 5.53066Z" fill="#47477F"/>
<path d="M23.0741 62.6844C22.2844 63.1403 21.2771 63.0134 20.6243 62.3758L20.4831 62.2378L17.3785 64.0303L23.5433 70.488C23.6791 70.4224 23.814 70.3534 23.9468 70.2767C26.8553 68.5975 27.8517 64.8785 26.1725 61.9702C26.0144 61.6962 25.8379 61.4392 25.6459 61.1997L23.0741 62.6844Z" fill="#D3DCFB"/>
<path d="M20.6243 62.3759L20.4831 62.2378L17.3785 64.0303L23.5433 70.4881C23.6792 70.4225 23.814 70.3534 23.9468 70.2767C24.9341 69.7067 25.7003 68.9013 26.2171 67.9726C21.9045 66.9049 23.0742 62.6844 23.0742 62.6844C22.2844 63.1404 21.2771 63.0134 20.6243 62.3759Z" fill="#BEC8F7"/>
<path d="M17.549 63.8315L10.5695 67.8611C16.2491 73.902 23.8729 78.0931 32.4427 79.4335L17.549 63.8315Z" fill="#E9EFFF"/>
<path d="M23.7863 70.3653L17.549 63.8313L10.5695 67.8609C13.0028 70.449 15.7938 72.696 18.8621 74.5263C18.6949 69.764 23.7863 70.3653 23.7863 70.3653Z" fill="#D3DCFB"/>
<path d="M6.51059 45.2066L4.37712 41.5113C3.72944 40.3894 2.29507 40.0051 1.17317 40.6528C0.0512607 41.3004 -0.333045 42.7348 0.314633 43.8567L2.44811 47.552L6.51059 45.2066Z" fill="#E9EFFF"/>
<path d="M4.59359 41.8862C4.60185 41.971 4.60652 42.0569 4.60652 42.1437C4.60652 43.5809 3.44145 44.7459 2.00428 44.7459C1.47971 44.7459 0.992239 44.5893 0.583466 44.3224L2.44796 47.5519L6.51044 45.2064L4.59359 41.8862Z" fill="#D3DCFB"/>
<path d="M10.8143 68.1208L20.882 62.3083C20.7346 62.1641 20.6026 61.9995 20.4944 61.8122L9.94582 43.5418C9.83766 43.3545 9.76099 43.1578 9.71003 42.958L0.74881 48.1318C2.05009 55.8203 5.64785 62.7272 10.8143 68.1208Z" fill="#62E6BE"/>
<path d="M14.7132 52.8141L14.7208 51.812L9.94597 43.5418C9.83782 43.3545 9.76114 43.1578 9.71018 42.958L0.74881 48.1318C1.37732 51.845 2.54302 55.3752 4.16081 58.6415C4.37244 56.6361 5.71362 55.9833 5.71362 55.9833C5.71362 55.9833 8.44085 54.3859 10.8154 53.0793C13.1898 51.7729 14.7132 52.8141 14.7132 52.8141Z" fill="#62E6BE"/>
<path d="M32.4489 56.502C39.5519 53.6698 47.1697 53.2615 54.2568 54.9918L32.7332 17.7119C30.688 24.7147 26.5257 31.1078 20.5214 35.843C20.9635 36.0322 21.3514 36.3584 21.6104 36.8069L32.1587 55.0772C32.4176 55.5257 32.5061 56.0245 32.4489 56.502Z" fill="#D3DCFB"/>
<path d="M40.2611 30.7507L32.733 17.7119C30.6881 24.7147 26.5255 31.1078 20.5212 35.843C20.9634 36.0322 21.3513 36.3584 21.6103 36.8069L26.7473 45.7044C32.7601 41.3542 37.3939 36.1147 40.2611 30.7507Z" fill="#BEC8F7"/>
<path d="M31.6156 58.0531L23.2042 62.9094C22.1013 63.5462 20.6913 63.1683 20.0545 62.0654L9.50603 43.7951C8.86926 42.6922 9.24718 41.282 10.3501 40.6454L18.7615 35.7891C19.8644 35.1523 21.2746 35.5302 21.9112 36.6329L32.4595 54.9032C33.0963 56.0063 32.7184 57.4163 31.6156 58.0531Z" fill="#62E6BE"/>
<path d="M21.9112 36.6332C21.2744 35.5303 19.8644 35.1526 18.7615 35.7893L10.3501 40.6457C9.24717 41.2824 8.86941 42.6927 9.50602 43.7954L14.713 52.8143C15.3075 50.1863 17.4879 51.3673 17.4879 51.3673L24.4774 47.3319C24.8003 44.8054 27.0295 45.4989 27.0295 45.4989L21.9112 36.6332Z" fill="#62E6BE"/>
<path d="M14.1942 44.4914C13.7903 44.4914 13.3974 44.2818 13.1809 43.9069C12.8582 43.3479 13.0497 42.633 13.6087 42.3103L18.5738 39.4437C19.1328 39.1208 19.8477 39.3125 20.1704 39.8715C20.4932 40.4305 20.3016 41.1454 19.7426 41.4681L14.7775 44.3347C14.5935 44.4409 14.3924 44.4914 14.1942 44.4914Z" fill="#62E6BE"/>
<path d="M16.3478 48.2217C15.9439 48.2217 15.551 48.0121 15.3345 47.6371C15.0118 47.0781 15.2033 46.3632 15.7623 46.0405L20.7274 43.1739C21.2864 42.851 22.0013 43.0427 22.324 43.6017C22.6468 44.1607 22.4552 44.8756 21.8962 45.1983L16.9311 48.0649C16.7471 48.1712 16.546 48.2217 16.3478 48.2217Z" fill="#62E6BE"/>
<path d="M18.5014 51.9516C18.0974 51.9516 17.7045 51.742 17.4881 51.3671C17.1653 50.8081 17.3569 50.0932 17.9159 49.7705L22.881 46.9039C23.44 46.581 24.1548 46.7727 24.4776 47.3317C24.8003 47.8907 24.6088 48.6056 24.0498 48.9283L19.0847 51.7949C18.9006 51.9011 18.6996 51.9516 18.5014 51.9516Z" fill="#62E6BE"/>
<path d="M20.655 55.6816C20.251 55.6816 19.8581 55.472 19.6417 55.0971C19.3189 54.538 19.5105 53.8232 20.0695 53.5005L25.0346 50.6339C25.5936 50.311 26.3084 50.5027 26.6312 51.0617C26.9539 51.6207 26.7624 52.3355 26.2034 52.6583L21.2383 55.5248C21.0542 55.6311 20.8532 55.6816 20.655 55.6816Z" fill="#62E6BE"/>
<path d="M22.8085 59.4118C22.4046 59.4118 22.0117 59.2022 21.7952 58.8273C21.4725 58.2683 21.664 57.5534 22.223 57.2307L27.1881 54.3641C27.7472 54.0412 28.462 54.2329 28.7847 54.7919C29.1075 55.3509 28.916 56.0658 28.357 56.3885L23.3918 59.2551C23.2078 59.3614 23.0068 59.4118 22.8085 59.4118Z" fill="#62E6BE"/>
<path d="M57.2692 56.1422C56.1475 56.7899 54.7129 56.4056 54.0653 55.2837L32.3845 17.7317C31.7369 16.6098 32.1213 15.1754 33.2431 14.5278C34.3648 13.8801 35.7994 14.2644 36.447 15.3863L58.1276 52.9383C58.7754 54.0602 58.3911 55.4945 57.2692 56.1422Z" fill="#E9EFFF"/>
<path d="M41.4293 28.5203C42.2367 28.0542 43.1816 28.0456 43.9672 28.4114L36.4472 15.3863C35.7995 14.2644 34.365 13.8801 33.2432 14.5278C32.1215 15.1754 31.737 16.6098 32.3847 17.7317L40.058 31.0222C40.0155 30.0311 40.5106 29.0508 41.4293 28.5203Z" fill="#D3DCFB"/>
<path d="M65.9398 68.1475C63.5156 64.4284 59.2735 60.1476 54.1619 60.7562C45.4193 61.7968 23.7563 62.9523 40.1825 79.8523C50.2934 79.3847 59.377 74.9856 65.9398 68.1475Z" fill="#827DF9"/>
<path d="M3.15921 26.9753C6.06005 43.5206 26.9483 17.1171 28.0557 11.2627C28.5524 8.63711 27.2723 6.87235 25.6516 5.71289C15.4886 9.30894 7.30211 17.0844 3.15921 26.9753Z" fill="#827DF9"/>
<path d="M50.1967 8.27641C50.8261 8.27641 51.3363 7.76616 51.3363 7.13674C51.3363 6.50732 50.8261 5.99707 50.1967 5.99707C49.5672 5.99707 49.057 6.50732 49.057 7.13674C49.057 7.76616 49.5672 8.27641 50.1967 8.27641Z" fill="#5F5F9B"/>
</g>
<defs>
<clipPath id="clip0_0_405">
<rect width="80" height="80" fill="white"/>
</clipPath>
</defs>
</svg>
